<svg width="34" height="34" viewBox="0 0 34 34" fill="none" xmlns="http://www.w3.org/2000/svg">
<path d="M12 28.6667C12 30.5077 9.76142 32 7 32C4.23858 32 2 30.5077 2 28.6667C2 26.8257 4.23858 25.3333 7 25.3333C9.76142 25.3333 12 26.8257 12 28.6667ZM12 28.6667V5.33333L32 2V25.3333M32 25.3333C32 27.1743 29.7615 28.6667 27 28.6667C24.2385 28.6667 22 27.1743 22 25.3333C22 23.4923 24.2385 22 27 22C29.7615 22 32 23.4923 32 25.3333ZM12 12L32 8.66667" stroke="#023047" stroke-width="3" stroke-linecap="round" stroke-linejoin="round"/>
</svg>
