<svg width="29" height="29" viewBox="0 0 29 29" fill="none" xmlns="http://www.w3.org/2000/svg">
<path fill-rule="evenodd" clip-rule="evenodd" d="M9.48845 2.92153C11.7049 2.00426 14.1436 1.76502 16.496 2.23409C18.8485 2.70316 21.0089 3.85946 22.704 5.55668L24.1191 4.14334C22.1444 2.16617 19.6276 0.819146 16.8871 0.272705C14.1467 -0.273737 11.3057 0.00495899 8.72366 1.07353C6.14163 2.1421 3.93456 3.95253 2.38171 6.27575C0.82886 8.59898 0 11.3306 0 14.125C0 16.9194 0.828861 19.651 2.38171 21.9743C3.93456 24.2975 6.14163 26.1079 8.72366 27.1765C11.3057 28.2451 14.1467 28.5238 16.8871 27.9773C19.6276 27.4309 22.1444 26.0839 24.1191 24.1067L22.704 22.6933C21.0089 24.3906 18.8485 25.5469 16.496 26.0159C14.1436 26.485 11.7049 26.2458 9.48845 25.3285C7.27202 24.4112 5.37746 22.8571 4.04448 20.8629C2.7115 18.8686 2 16.5238 2 14.125C2 11.7263 2.7115 9.38143 4.04448 7.38715C5.37746 5.39288 7.27202 3.8388 9.48845 2.92153ZM13.9365 11.7375C13.9365 10.9712 14.5577 10.35 15.324 10.35H16.5115C17.2778 10.35 17.899 10.9712 17.899 11.7375C17.899 12.5038 17.2778 13.125 16.5115 13.125H15.324C14.5577 13.125 13.9365 12.5038 13.9365 11.7375ZM15.324 8.34998C13.4532 8.34998 11.9365 9.86661 11.9365 11.7375C11.9365 12.6689 12.3125 13.5126 12.9209 14.125C12.3125 14.7374 11.9365 15.581 11.9365 16.5125C11.9365 18.3834 13.4532 19.9 15.324 19.9H16.5115C18.3824 19.9 19.899 18.3834 19.899 16.5125C19.899 15.581 19.5231 14.7374 18.9146 14.125C19.5231 13.5126 19.899 12.6689 19.899 11.7375C19.899 9.86661 18.3824 8.34998 16.5115 8.34998H15.324ZM15.324 15.125C14.5577 15.125 13.9365 15.7462 13.9365 16.5125C13.9365 17.2788 14.5577 17.9 15.324 17.9H16.5115C17.2778 17.9 17.899 17.2788 17.899 16.5125C17.899 15.7462 17.2778 15.125 16.5115 15.125H15.324ZM7.1615 11.55V17.9H5.77405V19.9H10.549V17.9H9.1615V11.55H9.34905V9.54999H9.1615V8.16248H7.1615V9.54999H5.77405V11.55H7.1615ZM23.8615 15.125H21.2865V13.125H23.8615V10.55H25.8615V13.125H28.449V15.125H25.8615V17.7H23.8615V15.125Z" fill="#023047"/>
</svg>
