<svg width="25" height="25" viewBox="0 0 25 25" fill="none" xmlns="http://www.w3.org/2000/svg">
<path d="M22.3751 0.383991C22.174 -0.127997 21.452 -0.127997 21.2508 0.383991L20.7128 1.75309C20.6515 1.9094 20.5282 2.03314 20.3725 2.09479L19.0083 2.63475C18.4982 2.83668 18.4982 3.56125 19.0083 3.76318L20.3725 4.30315C20.5282 4.3648 20.6515 4.48853 20.7128 4.64484L21.2508 6.01394C21.452 6.52593 22.174 6.52593 22.3751 6.01395L22.9131 4.64484C22.9745 4.48853 23.0977 4.3648 23.2535 4.30315L24.6176 3.76318C25.1277 3.56125 25.1277 2.83668 24.6176 2.63475L23.2535 2.09479C23.0977 2.03314 22.9745 1.9094 22.9131 1.75309L22.3751 0.383991Z" fill="#023047"/>
<path d="M17.541 7.66206C17.3397 7.15008 16.6178 7.15008 16.4166 7.66206L16.2205 8.16125C16.1591 8.31756 16.0358 8.44128 15.8801 8.50293L15.3827 8.69981C14.8726 8.90173 14.8726 9.62631 15.3827 9.82823L15.8801 10.0251C16.0358 10.0867 16.1591 10.2105 16.2205 10.3668L16.4166 10.866C16.6178 11.378 17.3397 11.378 17.541 10.866L17.7371 10.3668C17.7985 10.2105 17.9217 10.0867 18.0775 10.0251L18.5748 9.82823C19.085 9.62631 19.085 8.90173 18.5748 8.69981L18.0775 8.50293C17.9217 8.44128 17.7985 8.31756 17.7371 8.16125L17.541 7.66206Z" fill="#023047"/>
<path d="M12.5 25C19.4035 25 25 19.4035 25 12.5C25 11.9216 24.1331 11.826 23.834 12.321C22.4111 14.6757 19.8269 16.25 16.875 16.25C12.3876 16.25 8.75 12.6124 8.75 8.125C8.75 5.17306 10.3242 2.58881 12.679 1.16595C13.174 0.866837 13.0784 0 12.5 0C5.59644 0 0 5.59644 0 12.5C0 19.4035 5.59644 25 12.5 25Z" fill="#023047"/>
</svg>
