<svg width="36" height="36" viewBox="0 0 36 36" fill="none" xmlns="http://www.w3.org/2000/svg">
<path d="M23.4 33V23.7692L18.6 20.6923M18.6 20.6923L21 11.4615M18.6 20.6923H13.8M21 11.4615C23.4 13.2564 27.24 16.0769 33 16.0769M21 11.4615L20.5709 11.1865C19.2156 10.3177 16.8965 10.7678 16.5206 11.9727L13.8 20.6923M13.8 20.6923L9 33M33 13.7692V33M9 9.92308H8.32982C7.29679 9.92308 6.37966 10.3468 6.05299 10.975L3 16.8462L6.6 17.6154L9 9.92308ZM24.6 4.53846C24.6 5.38812 23.5255 6.07692 22.2 6.07692C20.8745 6.07692 19.8 5.38812 19.8 4.53846C19.8 3.6888 20.8745 3 22.2 3C23.5255 3 24.6 3.6888 24.6 4.53846Z" stroke="#023047" stroke-width="5" stroke-linecap="round" stroke-linejoin="round"/>
</svg>
