<svg width="30" height="30" viewBox="0 0 30 30" fill="none" xmlns="http://www.w3.org/2000/svg">
<path d="M0 24.39V5.64C0 4.08 0.55 2.75 1.65 1.65C2.75 0.55 4.08 0 5.64 0H24.39C25.93 0 27.25 0.55 28.35 1.65C29.45 2.75 30 4.08 30 5.64V24.39C30 25.95 29.45 27.27 28.35 28.35C27.25 29.43 25.93 29.98 24.39 30H5.64C4.08 30 2.75 29.45 1.65 28.35C0.55 27.25 0 25.93 0 24.39ZM3.75 24.39C3.75 24.91 3.93 25.35 4.29 25.71C4.65 26.07 5.1 26.25 5.64 26.25H24.39C24.89 26.25 25.33 26.07 25.71 25.71C26.09 25.35 26.27 24.91 26.25 24.39V5.64C26.25 5.12 26.07 4.68 25.71 4.32C25.35 3.96 24.91 3.77 24.39 3.75H5.64C5.12 3.75 4.67 3.94 4.29 4.32C3.91 4.7 3.73 5.14 3.75 5.64V24.39ZM7.11 15C7.11 14.48 7.3 14.04 7.68 13.68C8.06 13.32 8.5 13.14 9 13.14C9.5 13.14 9.94 13.32 10.32 13.68L12.99 16.32L19.62 9.72C19.98 9.34 20.42 9.15 20.94 9.15C21.46 9.15 21.9 9.34 22.26 9.72C22.62 10.1 22.81 10.54 22.83 11.04C22.85 11.54 22.66 11.98 22.26 12.36L14.31 20.31C13.95 20.69 13.51 20.88 12.99 20.88C12.47 20.88 12.03 20.69 11.67 20.31L7.68 16.32C7.3 15.96 7.11 15.52 7.11 15Z" fill="#023047"/>
</svg>
