<svg width="30" height="30" viewBox="0 0 30 30" fill="none" xmlns="http://www.w3.org/2000/svg">
<g clip-path="url(#clip0_16_155)">
<path d="M17.881 5.2568V2.97492C17.881 2.71547 17.6707 2.50518 17.4113 2.50518H15.8768V0.469746C15.8768 0.210293 15.6665 0 15.4071 0C15.1476 0 14.9373 0.210234 14.9373 0.469746V2.50523H13.4029C13.1435 2.50523 12.9331 2.71547 12.9331 2.97498V5.25686C7.2245 6.40805 2.91235 11.4623 2.91235 17.5052C2.91235 24.3949 8.51743 30 15.4071 30C17.1806 30 18.9199 29.6226 20.5139 28.909L20.5437 29.0283C20.5959 29.2374 20.7839 29.3841 20.9994 29.3841C21.215 29.3841 21.4028 29.2374 21.4551 29.0283L21.6268 28.3417C22.3068 27.9515 22.9528 27.4965 23.5539 26.9791C23.7505 26.8099 23.7727 26.5133 23.6035 26.3166C23.4343 26.12 23.1377 26.0977 22.941 26.267C22.6254 26.5387 22.2963 26.7916 21.9557 27.0259L22.1614 26.2032L24.6585 25.3505C24.8487 25.2856 24.9765 25.1069 24.9765 24.906C24.9765 24.7051 24.8486 24.5263 24.6585 24.4614L22.1614 23.6088L21.4551 20.7837C21.4029 20.5746 21.215 20.4279 20.9994 20.4279C20.7839 20.4279 20.596 20.5746 20.5437 20.7837L19.8375 23.6088L17.3403 24.4614C17.1502 24.5263 17.0224 24.7051 17.0224 24.906C17.0224 25.1069 17.1502 25.2856 17.3403 25.3505L19.8375 26.2032L20.2821 27.9816C19.1547 28.506 17.9458 28.8474 16.7018 28.9877C17.0313 28.3942 17.3201 27.5373 17.5724 26.4097C17.629 26.1565 17.4697 25.9054 17.2166 25.8488C16.9635 25.7925 16.7122 25.9515 16.6556 26.2046C16.1341 28.5358 15.5653 29.0605 15.4072 29.0605C15.2371 29.0605 14.6309 28.4822 14.0956 25.9124C14.0636 25.7587 14.0326 25.6012 14.0026 25.4407C14.4659 25.4735 14.9344 25.4906 15.4072 25.4906C15.6666 25.4906 15.8769 25.2803 15.8769 25.0208C15.8769 24.7614 15.6666 24.5511 15.4072 24.5511C14.8789 24.5511 14.3564 24.5289 13.8418 24.4864C13.6572 23.268 13.5239 21.9011 13.4474 20.4472C14.0896 20.4689 14.7444 20.4801 15.4072 20.4801C16.0696 20.4801 16.724 20.4689 17.3658 20.4473C17.3113 21.4782 17.2284 22.4723 17.1185 23.398C17.0878 23.6556 17.2719 23.8893 17.5295 23.9198C17.7867 23.9508 18.0207 23.7664 18.0514 23.5088C18.1669 22.5364 18.2531 21.491 18.3086 20.4075C19.9276 20.325 21.4463 20.1734 22.783 19.9597C22.6493 20.9017 22.4378 21.8146 22.1486 22.6901C22.0672 22.9364 22.2009 23.2021 22.4473 23.2835C22.6934 23.365 22.9592 23.2311 23.0407 22.9847C23.3786 21.9619 23.6162 20.8923 23.7535 19.7874C23.8386 19.7706 23.9228 19.7537 24.006 19.7364C25.1911 19.4895 26.0999 19.2049 26.7411 18.8791C26.3004 20.2285 25.2119 21.474 23.5693 22.478C23.3479 22.6133 23.2783 22.9024 23.4135 23.1237C23.5488 23.3452 23.8379 23.4148 24.0593 23.2795C24.9332 22.7453 25.668 22.1443 26.2539 21.4933C25.9884 22.2162 25.6509 22.9136 25.2426 23.574C25.1061 23.7946 25.1744 24.0841 25.3951 24.2205C25.6157 24.3568 25.9052 24.2886 26.0417 24.068C27.2587 22.0999 27.902 19.8305 27.902 17.5051C27.9019 11.4623 23.5897 6.40805 17.881 5.2568ZM18.9457 24.906L20.383 24.4153C20.5338 24.3638 20.6482 24.2392 20.6868 24.0847L20.9994 22.8344L21.312 24.0847C21.3506 24.2393 21.4651 24.3638 21.6159 24.4153L23.0531 24.906L21.6159 25.3968C21.4651 25.4483 21.3506 25.5728 21.312 25.7274L20.9994 26.9777L20.6868 25.7274C20.6482 25.5728 20.5338 25.4483 20.383 25.3968L18.9457 24.906ZM13.8727 3.44467H16.9416V5.10475C16.4386 5.04287 15.9266 5.01041 15.4071 5.01041C14.8877 5.01041 14.3756 5.04287 13.8727 5.10475V3.44467ZM15.4071 9.51984C14.9344 9.51984 14.4658 9.53695 14.0026 9.56971C14.0326 9.40916 14.0635 9.25166 14.0955 9.09803C14.6309 6.52822 15.237 5.9499 15.4071 5.9499C15.5772 5.9499 16.1834 6.52822 16.7187 9.09803C16.7507 9.25172 16.7817 9.40922 16.8117 9.56971C16.3484 9.53695 15.8799 9.51984 15.4071 9.51984ZM16.9725 10.524C17.1571 11.7423 17.2904 13.1093 17.3669 14.5631C16.7247 14.5414 16.0699 14.5303 15.4071 14.5303C14.7443 14.5303 14.0896 14.5414 13.4473 14.5631C13.5238 13.1093 13.6571 11.7423 13.8417 10.524C14.3563 10.4814 14.8788 10.4593 15.4071 10.4593C15.9354 10.4593 16.4579 10.4815 16.9725 10.524ZM14.0504 6.13734C13.7173 6.78023 13.427 7.70039 13.1758 8.90643C13.125 9.15012 13.0768 9.40271 13.031 9.66264C11.7604 9.81715 10.5431 10.0955 9.41556 10.4879C10.5339 8.25445 12.1718 6.66164 14.0504 6.13734ZM12.465 19.465C10.8074 19.3778 9.26233 19.2169 7.92224 18.9901C7.88134 18.5038 7.86013 18.0083 7.86013 17.5053C7.86013 17.0023 7.88134 16.5067 7.92224 16.0205C9.26233 15.7938 10.8073 15.6327 12.465 15.5456C12.4433 16.1878 12.4321 16.8425 12.4321 17.5054C12.4321 18.168 12.4434 18.8228 12.465 19.465ZM12.5048 20.4075C12.5772 21.8276 12.7028 23.1705 12.8767 24.3811C11.4473 24.1858 10.0969 23.825 8.88528 23.3142C8.49317 22.286 8.20185 21.1573 8.03204 19.9599C9.36833 20.1735 10.8864 20.3251 12.5048 20.4075ZM12.5048 14.6029C10.8864 14.6854 9.36833 14.8369 8.0321 15.0504C8.20196 13.8531 8.49317 12.7244 8.8854 11.6962C10.0971 11.1853 11.4474 10.8246 12.8768 10.6293C12.7028 11.84 12.5772 13.1828 12.5048 14.6029ZM10.9725 6.83531C10.3867 7.36383 9.84118 8.00139 9.34765 8.74166C8.88857 9.43019 8.49054 10.1851 8.15649 10.9907C7.62851 11.2308 7.12624 11.4981 6.65521 11.7925C5.82616 12.3107 5.12509 12.8902 4.56183 13.5161C5.67534 10.4982 8.01458 8.06924 10.9725 6.83531ZM7.15308 12.5892C7.32815 12.4798 7.50833 12.3747 7.69237 12.2732C7.40017 13.2101 7.18806 14.1996 7.06108 15.2228C6.97595 15.2396 6.89146 15.2566 6.80831 15.2739C5.62384 15.5206 4.7154 15.805 4.07427 16.1306C4.50739 14.8079 5.56343 13.5827 7.15308 12.5892ZM3.85179 17.5052C3.85179 17.3359 4.42571 16.7344 6.96634 16.2008C6.93634 16.6314 6.92069 17.0665 6.92069 17.5052C6.92069 17.944 6.93634 18.3791 6.96634 18.8097C4.42571 18.2761 3.85179 17.6746 3.85179 17.5052ZM6.80831 19.7365C6.89146 19.7539 6.97595 19.7709 7.06108 19.7876C7.18812 20.8108 7.40017 21.8003 7.69237 22.7372C7.50833 22.6356 7.3281 22.5306 7.15308 22.4212C5.56343 21.4277 4.50739 20.2025 4.07421 18.8797C4.7154 19.2054 5.6239 19.4898 6.80831 19.7365ZM4.56177 21.4944C5.12503 22.1202 5.8261 22.6998 6.65515 23.2179C7.12618 23.5124 7.62845 23.7797 8.15644 24.0197C8.49048 24.8254 8.88851 25.5803 9.34759 26.2688C9.84112 27.0091 10.3867 27.6466 10.9724 28.1752C8.01458 26.9412 5.67534 24.5122 4.56177 21.4944ZM14.0504 28.8731C12.1718 28.3488 10.5339 26.7559 9.41556 24.5225C10.5431 24.9149 11.7604 25.1933 13.031 25.3478C13.0768 25.6077 13.1251 25.8603 13.1758 26.104C13.4271 27.3101 13.7173 28.2302 14.0504 28.8731ZM17.4073 19.5061C16.7529 19.5289 16.0845 19.5407 15.4071 19.5407C14.7295 19.5407 14.0609 19.5289 13.4063 19.5061C13.3834 18.8515 13.3716 18.1829 13.3716 17.5052C13.3716 16.8276 13.3834 16.159 13.4063 15.5044C14.0609 15.4815 14.7295 15.4697 15.4071 15.4697C16.0847 15.4697 16.7534 15.4815 17.408 15.5044C17.4308 16.159 17.4426 16.8276 17.4426 17.5052C17.4426 18.1782 17.4306 18.8475 17.4073 19.5061ZM17.7833 9.66264C17.7373 9.40271 17.6892 9.15012 17.6384 8.90643C17.3872 7.70033 17.0969 6.78023 16.7639 6.13734C18.6424 6.66164 20.2803 8.25445 21.3987 10.4879C20.271 10.0955 19.0538 9.81715 17.7833 9.66264ZM17.9374 10.6293C19.3668 10.8246 20.7172 11.1854 21.9288 11.6962C22.321 12.7245 22.6123 13.8531 22.7821 15.0505C21.4459 14.8371 19.9278 14.6854 18.3094 14.603C18.237 13.1828 18.1115 11.84 17.9374 10.6293ZM22.8919 18.9901C21.5518 19.2168 20.0067 19.3778 18.3489 19.465C18.3709 18.8193 18.382 18.1638 18.382 17.5052C18.382 16.8424 18.3708 16.1876 18.3492 15.5454C20.0068 15.6326 21.5518 15.7935 22.8919 16.0204C22.9328 16.5066 22.9541 17.0021 22.9541 17.5051C22.9541 18.0064 22.9328 18.5016 22.8919 18.9901ZM22.6577 10.9907C22.3236 10.1851 21.9256 9.43019 21.4665 8.74166C20.973 8.00139 20.4274 7.36383 19.8417 6.83531C22.7996 8.06924 25.1388 10.4982 26.2524 13.5161C25.6893 12.8903 24.9881 12.3107 24.159 11.7925C23.688 11.4981 23.1857 11.2308 22.6577 10.9907ZM23.7531 15.2228C23.6261 14.1996 23.414 13.21 23.1218 12.2732C23.3059 12.3747 23.4861 12.4797 23.6611 12.589C25.2508 13.5826 26.3068 14.8078 26.74 16.1306C26.0988 15.805 25.1903 15.5205 24.0059 15.2738C23.9227 15.2565 23.8382 15.2395 23.7531 15.2228ZM23.848 18.8096C23.8778 18.3793 23.8935 17.9445 23.8935 17.5052C23.8935 17.0665 23.8779 16.6314 23.8479 16.2008C26.3886 16.7344 26.9625 17.3359 26.9625 17.5052C26.9625 17.6746 26.3885 18.2761 23.848 18.8096Z" fill="black"/>
<path d="M29.5882 4.03354L27.091 3.18088L26.3848 0.355781C26.3325 0.14666 26.1446 0 25.9291 0C25.7136 0 25.5257 0.14666 25.4734 0.355781L24.7671 3.18088L22.27 4.03354C22.0798 4.09846 21.952 4.27717 21.952 4.47809C21.952 4.679 22.0799 4.85771 22.27 4.92264L24.7671 5.77529L25.4734 8.60039C25.5256 8.80951 25.7135 8.95617 25.9291 8.95617C26.1446 8.95617 26.3325 8.80951 26.3848 8.60039L27.091 5.77529L29.5882 4.92264C29.7783 4.85771 29.9061 4.679 29.9061 4.47809C29.9061 4.27717 29.7783 4.09846 29.5882 4.03354ZM26.5455 4.96887C26.3947 5.02037 26.2803 5.14488 26.2417 5.29945L25.9291 6.54973L25.6165 5.29945C25.5779 5.14482 25.4634 5.02037 25.3126 4.96887L23.8754 4.47809L25.3126 3.9873C25.4634 3.9358 25.5779 3.81129 25.6165 3.65672L25.9291 2.40645L26.2417 3.65672C26.2803 3.81135 26.3947 3.9358 26.5455 3.9873L27.9828 4.47809L26.5455 4.96887Z" fill="black"/>
<path d="M7.73004 6.03769L5.2329 5.18509L4.52661 2.35999C4.47428 2.15087 4.28643 2.00421 4.07092 2.00421C3.85542 2.00421 3.6675 2.15087 3.61524 2.35999L2.90895 5.18509L0.411802 6.03769C0.223833 6.10196 0.0938721 6.28355 0.0938721 6.48224C0.0938721 6.68093 0.223833 6.86251 0.411802 6.92679L2.90895 7.77945L3.61524 10.6045C3.66756 10.8137 3.85542 10.9603 4.07092 10.9603C4.28643 10.9603 4.47434 10.8137 4.52661 10.6045L5.2329 7.77945L7.73004 6.92679C7.92018 6.86187 8.04797 6.68316 8.04797 6.48224C8.04797 6.28132 7.92012 6.10267 7.73004 6.03769ZM4.68739 6.97302C4.53657 7.02452 4.42213 7.14904 4.38352 7.30361L4.07092 8.55388L3.75833 7.30361C3.71965 7.14898 3.60528 7.02452 3.45446 6.97302L2.01721 6.48224L3.45446 5.99146C3.60528 5.93995 3.71971 5.81544 3.75833 5.66087L4.07092 4.4106L4.38352 5.66087C4.42213 5.8155 4.53657 5.93995 4.68739 5.99146L6.12463 6.48224L4.68739 6.97302Z" fill="black"/>
</g>
<defs>
<clipPath id="clip0_16_155">
<rect width="30" height="30" fill="white"/>
</clipPath>
</defs>
</svg>
