<svg width="30" height="30" viewBox="0 0 30 30" fill="none" xmlns="http://www.w3.org/2000/svg">
<path d="M15 22.5004C20.2719 22.5004 24.5455 19.5622 24.5455 15.9377V6.5626C24.5455 2.93817 20.2719 0 15 0C9.72823 0 5.45459 2.93817 5.45459 6.5626V15.9377C5.45459 19.5622 9.72823 22.5004 15 22.5004ZM6.81823 14.5315H10.2273C10.6044 14.5315 10.9091 14.3219 10.9091 14.0627C10.9091 13.8035 10.6044 13.594 10.2273 13.594H6.81823V11.7189H10.2273C10.6044 11.7189 10.9091 11.5094 10.9091 11.2502C10.9091 10.991 10.6044 10.7814 10.2273 10.7814H6.81823V8.90639H10.2273C10.6044 8.90639 10.9091 8.69685 10.9091 8.43763C10.9091 8.17841 10.6044 7.96887 10.2273 7.96887H6.81823V6.5626C6.81823 3.45615 10.4816 0.937515 15 0.937515C19.5185 0.937515 23.1819 3.45615 23.1819 6.5626V7.96887H19.7728C19.3957 7.96887 19.091 8.17841 19.091 8.43763C19.091 8.69685 19.3957 8.90639 19.7728 8.90639H23.1819V10.7814H19.7728C19.3957 10.7814 19.091 10.991 19.091 11.2502C19.091 11.5094 19.3957 11.7189 19.7728 11.7189H23.1819V13.594H19.7728C19.3957 13.594 19.091 13.8035 19.091 14.0627C19.091 14.3219 19.3957 14.5315 19.7728 14.5315H23.1819V15.9377C23.1819 19.0442 19.5185 21.5628 15 21.5628C10.4816 21.5628 6.81823 19.0442 6.81823 15.9377V14.5315Z" fill="#023047"/>
<path d="M27.9545 14.5324C26.8248 14.5324 25.9098 15.1615 25.9091 15.9378C25.9084 20.0806 21.0252 23.4374 15 23.4374C8.97477 23.4374 4.09159 20.0806 4.09091 15.9378C4.09091 15.1615 3.17523 14.5315 2.04545 14.5315C0.915682 14.5315 0 15.1615 0 15.9378C0 20.8269 4.95 24.9178 11.5909 25.98V28.125C11.5909 29.1605 12.812 30 14.3182 30H15.6818C17.188 30 18.4091 29.1605 18.4091 28.125V25.98C25.05 24.9178 30 20.8269 30 15.9378C29.9993 15.1615 29.0843 14.5324 27.9545 14.5324ZM18.4091 25.0059C17.9632 25.0846 17.5084 25.1484 17.0455 25.1967V28.125C17.0455 28.6425 16.4345 29.0625 15.6818 29.0625H14.3182C13.5655 29.0625 12.9545 28.6425 12.9545 28.125V25.1967C12.4916 25.1479 12.0368 25.0846 11.5909 25.0059C5.71295 23.9634 1.36364 20.3042 1.36364 15.9378C1.36364 15.6785 1.66841 15.469 2.04545 15.469C2.4225 15.469 2.72727 15.6785 2.72727 15.9378C2.72795 20.5972 8.22205 24.3749 15 24.3749C21.778 24.3749 27.272 20.5972 27.2727 15.9378C27.2734 15.6795 27.5775 15.4699 27.9545 15.4699C28.3316 15.4699 28.6357 15.6795 28.6364 15.9378C28.6364 20.3042 24.287 23.9634 18.4091 25.0059Z" fill="#023047"/>
</svg>
