<svg width="30" height="30" viewBox="0 0 30 30" fill="none" xmlns="http://www.w3.org/2000/svg">
<g clip-path="url(#clip0_16_148)">
<path d="M29.625 10.125C29.625 9.84376 29.4375 9.65626 29.25 9.46876C29.0625 9.37501 28.7812 9.37501 28.5 9.37501C22.875 10.7813 16.5 10.7813 10.875 9.37501C10.5938 9.28126 10.3125 9.37501 10.125 9.46876C9.9375 9.56251 9.75 9.84376 9.75 10.125C9.5625 11.4375 9.375 12.8438 9.375 14.1563C9.375 22.875 13.9688 30 19.6875 30C25.4062 30 30 22.875 30 14.1563C30 12.8438 29.9062 11.5313 29.625 10.125ZM14.0625 19.6875C13.5 19.6875 13.125 19.3125 13.125 18.75C13.125 17.1563 14.3438 15.9375 15.9375 15.9375C17.5312 15.9375 18.75 17.1563 18.75 18.75C18.75 19.3125 18.375 19.6875 17.8125 19.6875C17.25 19.6875 16.875 19.3125 16.875 18.75C16.875 18.1875 16.5 17.8125 15.9375 17.8125C15.375 17.8125 15 18.1875 15 18.75C15 19.3125 14.625 19.6875 14.0625 19.6875ZM19.6875 26.25C17.25 26.25 15.1875 24.2813 15 21.6563C15 21.2813 15.1875 21 15.4688 20.8125C15.75 20.625 16.125 20.625 16.5 20.8125C18.2812 21.9375 21.1875 21.9375 22.9688 20.8125C23.25 20.625 23.625 20.625 24 20.8125C24.2812 21 24.4688 21.375 24.4688 21.6563C24.1875 24.2813 22.125 26.25 19.6875 26.25ZM25.3125 19.6875C24.75 19.6875 24.375 19.3125 24.375 18.75C24.375 18.1875 24 17.8125 23.4375 17.8125C22.875 17.8125 22.5 18.1875 22.5 18.75C22.5 19.3125 22.125 19.6875 21.5625 19.6875C21 19.6875 20.625 19.3125 20.625 18.75C20.625 17.1563 21.8438 15.9375 23.4375 15.9375C25.0312 15.9375 26.25 17.1563 26.25 18.75C26.25 19.3125 25.875 19.6875 25.3125 19.6875Z" fill="#023047"/>
<path d="M7.5 15.5625C7.3125 15.6562 7.125 15.75 7.03125 15.8438C6.9375 15.8438 6.75 15.9375 6.5625 15.9375C6.375 15.9375 6.1875 15.9375 6.09375 15.8438C5.8125 15.6562 5.625 15.2812 5.625 14.9062C5.71875 13.3125 6.5625 12 7.6875 11.1562C7.78125 10.6875 7.78125 10.3125 7.875 9.84375C7.96875 9.46875 8.0625 9.09375 8.34375 8.71875C7.78125 9.09375 7.21875 9.375 6.5625 9.375C4.96875 9.375 3.75 8.15625 3.75 6.5625C3.75 6 4.125 5.625 4.6875 5.625C5.25 5.625 5.625 6 5.625 6.5625C5.625 7.125 6 7.5 6.5625 7.5C7.125 7.5 7.5 7.125 7.5 6.5625C7.5 6 7.875 5.625 8.4375 5.625C9 5.625 9.375 6 9.375 6.5625C9.375 7.125 9.1875 7.6875 8.90625 8.15625C9 8.0625 9 8.0625 9.09375 7.96875C9.75 7.5 10.5938 7.40625 11.3438 7.59375H11.4375C11.3438 7.3125 11.25 6.9375 11.25 6.5625C11.25 6 11.625 5.625 12.1875 5.625C12.75 5.625 13.125 6 13.125 6.5625C13.125 7.125 13.5 7.5 14.0625 7.5C14.625 7.5 15 7.125 15 6.5625C15 6 15.375 5.625 15.9375 5.625C16.5 5.625 16.875 6 16.875 6.5625C16.875 7.3125 16.5938 7.875 16.125 8.4375C17.5312 8.53125 18.9375 8.625 20.25 8.625C20.4375 7.40625 20.5312 6.09375 20.5312 4.875C20.5312 3.5625 20.4375 2.15625 20.1562 0.84375C20.1562 0.5625 19.9688 0.375 19.7812 0.1875C19.6875 0 19.4062 0 19.125 0C13.5 1.40625 7.125 1.40625 1.5 0C1.21875 0 0.9375 0 0.75 0.1875C0.5625 0.28125 0.375 0.5625 0.375 0.75C0.09375 2.15625 0 3.46875 0 4.78125C0 12.375 3.5625 18.8438 8.25 20.25C7.875 18.8438 7.59375 17.25 7.5 15.5625Z" fill="#023047"/>
</g>
<defs>
<clipPath id="clip0_16_148">
<rect width="30" height="30" fill="white"/>
</clipPath>
</defs>
</svg>
