<svg width="50" height="34" viewBox="0 0 50 34" fill="none" xmlns="http://www.w3.org/2000/svg">
<path d="M2.2391 14.0026C-0.0256956 13.2668 14.4775 2.0043 17.138 2.0043C19.2532 2.00431 22.9744 4.40608 24.411 5.3907C24.7668 5.63456 25.2347 5.63701 25.5927 5.39639C27.0537 4.41456 30.8619 2.00001 32.9815 2C35.642 1.99999 50.1452 13.2625 47.8804 13.9983M2.2391 14.0026C3.01561 14.2548 4.4409 14.3357 6.49599 14.2886C8.55108 14.2415 8.33886 14.4248 10.5 14.2843M2.2391 14.0026C3.30337 18.3656 14.8901 31.9957 25 31.9957C35.1099 31.9957 46.8161 18.3613 47.8804 13.9983M47.8804 13.9983C47.1039 14.2505 45.6786 14.3314 43.6235 14.2843C42.1238 14.2499 42.1512 14.2606 40.7767 14.2843M10.5 14.2843C13.9756 14.0583 19.8007 13.4432 25 12.9957C30.2216 13.4451 39.4022 14.308 40.7767 14.2843M10.5 14.2843C5.73534 16.687 16.6435 20.6638 25 21C33.3564 21.3362 43.8256 16.0194 40.7767 14.2843" stroke="#023047" stroke-width="2.5"/>
</svg>
