<svg width="204" height="126" viewBox="0 0 204 126" fill="none" xmlns="http://www.w3.org/2000/svg">
<path d="M6.00318 51.41C-3.49911 48.5651 57.3512 5.01662 68.5138 5.01665C78.6708 5.01667 98.07 17.1955 101.483 19.3897C101.804 19.5966 102.197 19.6104 102.527 19.4173C106.23 17.254 128.439 4.47632 135.489 5.01665C154.579 6.47983 191.302 34.5397 198 51.41M6.00318 51.41C9.26113 52.3854 15.2412 52.6982 23.8636 52.5159M6.00318 51.41C10.4685 68.2803 59.584 121 102.002 121C144.419 121 186.838 78.8242 198 51.41M198 51.41C191.371 52.6675 184.038 53.1902 175.675 53.1698M23.8636 52.5159C40.3898 52.1666 66.6229 49.9988 102.002 47.1924C133.878 50.451 157.272 53.1251 175.675 53.1698M23.8636 52.5159C55.1493 91.7185 148.489 92.6422 175.675 53.1698" stroke="#023047" stroke-width="10"/>
</svg>
