<svg width="54" height="43" viewBox="0 0 54 43" fill="none" xmlns="http://www.w3.org/2000/svg">
<path d="M2.25989 17.6033C-0.201843 16.6468 15.5625 2.00543 18.4543 2.00544C20.7628 2.00544 24.9139 5.25614 26.4949 6.56782C26.8676 6.87701 27.4049 6.88971 27.7899 6.59604C29.5255 5.27234 34.1941 1.84516 35.8055 2.00544C40.751 2.49737 50.2649 11.9313 52 17.6033M2.25989 17.6033C3.10392 17.9312 4.65315 18.0364 6.88695 17.9751M2.25989 17.6033C3.4167 23.2752 16.1409 41 27.1299 41C38.119 41 49.1082 26.8202 52 17.6033M52 17.6033C50.2826 18.0261 48.383 18.2018 46.2163 18.1949M6.88695 17.9751C11.1683 17.8577 17.9645 17.1288 27.1299 16.1853C35.388 17.2808 41.4487 18.1799 46.2163 18.1949M6.88695 17.9751C14.992 31.1553 39.1733 31.4659 46.2163 18.1949" stroke="#023047" stroke-width="4" stroke-linejoin="round"/>
</svg>
