<svg width="76" height="61" viewBox="0 0 76 61" fill="none" xmlns="http://www.w3.org/2000/svg">
<path d="M3.36385 25.0047C-0.0825801 23.6558 21.9875 3.00788 26.0361 3.00789C29.407 3.0079 35.5847 7.84291 37.5583 9.46149C37.9261 9.76313 38.4507 9.77456 38.831 9.48879C40.9981 7.86017 47.9802 2.77268 50.3278 3.00789C57.2514 3.70165 70.5708 17.0059 73 25.0047M3.36385 25.0047C4.54549 25.4672 6.71442 25.6155 9.84173 25.5291M3.36385 25.0047C4.98339 33.0036 22.7973 58 38.1819 58C53.5665 58 68.9515 38.0029 73 25.0047M73 25.0047C70.5956 25.601 67.9362 25.8488 64.9029 25.8391M9.84173 25.5291C15.8357 25.3635 25.3503 24.3356 38.1819 23.005C49.7432 24.55 58.2281 25.8179 64.9029 25.8391M9.84173 25.5291C21.1889 44.1165 55.0426 44.5545 64.9029 25.8391" stroke="#023047" stroke-width="5"/>
</svg>
